<?xml version="1.0" standalone="no"?>
<!DOCTYPE svg PUBLIC "-//W3C//DTD SVG 20010904//EN"
 "http://www.w3.org/TR/2001/REC-SVG-20010904/DTD/svg10.dtd">
<svg version="1.0" xmlns="http://www.w3.org/2000/svg"
 width="700.000000pt" height="700.000000pt" viewBox="0 0 700.000000 700.000000"
 preserveAspectRatio="xMidYMid meet">
<metadata>
Created by potrace 1.11, written by Peter Selinger 2001-2013
</metadata>
<g transform="translate(0.000000,700.000000) scale(0.100000,-0.100000)"
fill="#000000" stroke="none">
<path d="M2025 6973 c-476 -38 -1042 -308 -1570 -746 -66 -55 -127 -107 -136
-116 -9 -9 -38 -36 -64 -60 -44 -41 -46 -45 -29 -58 41 -30 507 -259 807 -397
l27 -13 -52 -44 c-170 -145 -322 -324 -445 -524 -71 -116 -193 -387 -218 -485
-1 -3 -11 -38 -24 -79 -26 -83 -76 -311 -86 -386 -3 -27 -8 -70 -11 -95 -3
-25 -7 -56 -9 -69 -29 -161 -22 -672 11 -881 4 -25 7 -48 6 -51 0 -3 7 -53 18
-110 97 -540 312 -999 664 -1419 30 -36 283 -288 336 -335 25 -22 63 -53 85
-69 22 -16 45 -34 50 -40 6 -7 41 -34 80 -61 38 -28 83 -60 100 -72 97 -70
318 -200 470 -276 443 -223 868 -366 1435 -482 50 -11 306 -53 360 -60 30 -4
62 -9 70 -10 9 -2 56 -6 106 -10 l91 -7 148 72 c290 140 618 332 895 524 114
79 416 307 480 362 243 210 457 421 595 585 88 105 118 142 202 258 319 436
509 905 567 1401 12 108 15 526 3 575 -3 11 -8 56 -12 100 -3 43 -8 82 -10 85
-2 4 -9 38 -15 76 -37 235 -134 526 -249 744 -140 269 -348 525 -567 703 -167
134 -425 283 -601 347 l-63 23 48 25 c26 13 59 33 74 43 14 11 29 19 33 19 4
0 55 28 114 63 58 35 143 85 188 111 98 57 99 51 -19 160 -248 225 -517 371
-833 450 -252 63 -584 60 -770 -8 -236 -85 -406 -237 -518 -461 -38 -75 -87
-211 -87 -242 0 -10 -19 18 -41 61 -237 464 -661 771 -1186 857 -113 18 -350
30 -448 22z"/>
</g>
</svg>
